<svg xmlns="http://www.w3.org/2000/svg" viewBox="0 0 512 512" fill="none">
  <defs>
    <linearGradient id="bl-grad" x1="0" y1="0" x2="1" y2="1">
      <stop offset="0%" stop-color="#22c55e"/>
      <stop offset="100%" stop-color="#06b6d4"/>
    </linearGradient>
  </defs>
  <circle cx="256" cy="256" r="240" fill="url(#bl-grad)"/>
  <g fill="#ffffff">
    <path d="M178 132 h78 a72 72 0 0 1 0 144 h-12 a72 72 0 0 1 0 144 h-66 z
             M218 172 v92 h38 a36 36 0 0 0 0-72 z
             M218 304 v92 h54 a36 36 0 0 0 0-72 z" fill-rule="evenodd"/>
  </g>
  <path d="M70 264 h44 l16-26 22 56 18-72 22 84 16-42 h36"
        stroke="#ffffff" stroke-width="14" stroke-linecap="round" stroke-linejoin="round" fill="none" opacity="0.95"/>
  <g fill="#ffffff" opacity="0.95">
    <rect x="56" y="252" width="10" height="32" rx="3"/>
    <rect x="44" y="244" width="10" height="48" rx="3"/>
    <rect x="370" y="252" width="10" height="32" rx="3"/>
    <rect x="382" y="244" width="10" height="48" rx="3"/>
    <rect x="66" y="262" width="320" height="12" rx="3"/>
  </g>
</svg>
